<svg width="59" height="59" viewBox="0 0 59 59" fill="none" xmlns="http://www.w3.org/2000/svg">
<path d="M40.7802 19.8236C40.7801 19.3687 40.5994 18.9325 40.2778 18.6109C39.9561 18.2892 39.5199 18.1085 39.065 18.1085L25.3415 18.1085C25.1138 18.1045 24.8875 18.1459 24.676 18.2304C24.4644 18.3148 24.2718 18.4405 24.1093 18.6001C23.9469 18.7598 23.8178 18.9502 23.7297 19.1603C23.6417 19.3703 23.5963 19.5958 23.5963 19.8236C23.5963 20.0514 23.6417 20.2769 23.7297 20.4869C23.8178 20.697 23.9469 20.8874 24.1093 21.0471C24.2718 21.2067 24.4644 21.3324 24.676 21.4168C24.8875 21.5013 25.1138 21.5427 25.3415 21.5387L34.924 21.5387L18.8606 37.6021C18.5389 37.9238 18.3582 38.3601 18.3582 38.8151C18.3582 39.27 18.5389 39.7063 18.8606 40.028C19.1823 40.3497 19.6186 40.5305 20.0736 40.5305C20.5285 40.5305 20.9648 40.3497 21.2865 40.028L37.3499 23.9647L37.3499 33.5471C37.3577 33.9969 37.5419 34.4255 37.8627 34.7408C38.1835 35.0561 38.6153 35.2327 39.065 35.2327C39.5148 35.2327 39.9466 35.0561 40.2674 34.7408C40.5882 34.4255 40.7724 33.9969 40.7802 33.5471L40.7802 19.8236Z" fill="white"/>
</svg>
