<svg width="109" height="39" viewBox="0 0 109 39" fill="none" xmlns="http://www.w3.org/2000/svg">
<path d="M16.1268 27.2359L9.07395 27.4594C8.81876 27.4675 8.58616 27.6077 8.45995 27.8297L3.481 36.5852C3.14835 37.1701 2.26929 37.0353 2.12727 36.3775L0.065114 26.8265C0.0234737 26.6336 0.0613378 26.4321 0.170146 26.2675L4.03418 20.4226C4.17718 20.2063 4.19526 19.9305 4.08173 19.6974L0.184267 11.6945C0.0701569 11.4602 0.0890317 11.1829 0.233842 10.9663L6.8461 1.07227C6.98212 0.868742 7.21076 0.746544 7.45556 0.746544H17.4595H30.5912C31.2284 0.746544 31.5622 1.50345 31.1325 1.97393L27.2736 6.19889C27.1347 6.35095 26.9383 6.43758 26.7324 6.43758H20.7561H16.8816H6.00285C5.75073 6.43758 5.51631 6.56714 5.38217 6.78061L2.75551 10.9609C2.61722 11.181 2.60582 11.4578 2.72553 11.6885L9.51493 24.7729C9.6458 25.0251 9.91065 25.1789 10.1946 25.1677L17.7839 24.8673C18.073 24.8558 18.3283 24.6754 18.4356 24.4066L20.7561 18.5956C20.7561 18.5956 21.6253 18.5834 22.592 18.3168C23.1855 18.1531 23.9029 18.6238 23.8428 19.2364L23.0573 27.2359H16.1268ZM20.7583 23.0169C20.6971 22.9046 20.6663 22.7782 20.6691 22.6504L20.7561 18.5956L22.2808 15.273C22.5117 14.7698 22.1229 14.2021 21.5703 14.2356L18.3225 14.432C18.0543 14.4482 17.8165 14.6098 17.7027 14.8532L14.1861 22.3747C13.9296 22.9235 13.1558 22.9419 12.8735 22.4058L9.95122 16.8568C9.8163 16.6006 9.84484 16.289 10.0241 16.0615L12.608 12.7824C12.747 12.606 12.9592 12.5031 13.1837 12.5031H28.8526C29.3903 12.5031 29.745 13.0627 29.5156 13.5489L23.0573 27.2359L20.7583 23.0169Z" fill="white"/>
<path d="M34.8291 29V9.82016H42.7203C44.419 9.82016 45.8712 10.0942 47.0768 10.6422C48.3007 11.1902 49.2414 11.9756 49.899 12.9985C50.5566 14.0215 50.8854 15.2362 50.8854 16.6427C50.8854 18.0492 50.5566 19.2639 49.899 20.2869C49.2414 21.3098 48.3007 22.0953 47.0768 22.6433C45.8712 23.1912 44.419 23.4652 42.7203 23.4652H36.8019L38.3911 21.7939V29H34.8291ZM38.3911 22.1775L36.8019 20.4513H42.5559C44.1268 20.4513 45.305 20.1225 46.0904 19.4649C46.8941 18.789 47.296 17.8483 47.296 16.6427C47.296 15.4188 46.8941 14.4781 46.0904 13.8205C45.305 13.1629 44.1268 12.8341 42.5559 12.8341H36.8019L38.3911 11.0806V22.1775ZM54.3812 29V14.3685H57.8062V29H54.3812ZM56.1074 11.9573C55.4681 11.9573 54.9383 11.7564 54.5182 11.3545C54.1163 10.9527 53.9154 10.4686 53.9154 9.90236C53.9154 9.31783 54.1163 8.83377 54.5182 8.45017C54.9383 8.04831 55.4681 7.84738 56.1074 7.84738C56.7467 7.84738 57.2673 8.03918 57.6692 8.42277C58.0893 8.7881 58.2994 9.2539 58.2994 9.82016C58.2994 10.423 58.0984 10.9344 57.6966 11.3545C57.2947 11.7564 56.765 11.9573 56.1074 11.9573ZM70.6036 14.2041C71.7726 14.2041 72.8138 14.4325 73.7272 14.8891C74.6587 15.3458 75.3894 16.049 75.9191 16.9989C76.4489 17.9305 76.7137 19.1361 76.7137 20.6157V29H73.2888V21.0541C73.2888 19.7571 72.9782 18.789 72.3572 18.1497C71.7544 17.5104 70.905 17.1907 69.809 17.1907C69.0053 17.1907 68.2929 17.3551 67.6718 17.6839C67.0507 18.0127 66.5667 18.5059 66.2196 19.1635C65.8908 19.8028 65.7264 20.6157 65.7264 21.6021V29H62.3015V14.3685H65.562V18.3141L64.9866 17.1085C65.4981 16.1769 66.2379 15.4645 67.206 14.9713C68.1924 14.4599 69.3249 14.2041 70.6036 14.2041ZM86.5659 29.1918C84.9584 29.1918 83.7163 28.7808 82.8395 27.9588C81.9627 27.1185 81.5243 25.8856 81.5243 24.2598V11.1354H84.9493V24.1776C84.9493 24.8718 85.1228 25.4106 85.4699 25.7942C85.8352 26.1778 86.3375 26.3696 86.9769 26.3696C87.7441 26.3696 88.3834 26.1687 88.8949 25.7668L89.8538 28.2054C89.452 28.5342 88.9588 28.7808 88.3743 28.9452C87.7897 29.1096 87.1869 29.1918 86.5659 29.1918ZM79.1131 17.2181V14.4781H88.8675V17.2181H79.1131ZM98.7656 29.1918C97.2678 29.1918 95.9343 28.8721 94.7653 28.2328C93.5962 27.5752 92.6737 26.6802 91.9979 25.5476C91.322 24.4151 90.9841 23.1273 90.9841 21.6843C90.9841 20.2229 91.322 18.9352 91.9979 17.8209C92.6737 16.6884 93.5962 15.8024 94.7653 15.1631C95.9343 14.5238 97.2678 14.2041 98.7656 14.2041C100.282 14.2041 101.624 14.5238 102.793 15.1631C103.981 15.8024 104.903 16.6792 105.561 17.7935C106.237 18.9078 106.575 20.2047 106.575 21.6843C106.575 23.1273 106.237 24.4151 105.561 25.5476C104.903 26.6802 103.981 27.5752 102.793 28.2328C101.624 28.8721 100.282 29.1918 98.7656 29.1918ZM98.7656 26.26C99.6059 26.26 100.355 26.0774 101.012 25.712C101.67 25.3467 102.181 24.817 102.547 24.1228C102.93 23.4287 103.122 22.6159 103.122 21.6843C103.122 20.7344 102.93 19.9215 102.547 19.2457C102.181 18.5516 101.67 18.0218 101.012 17.6565C100.355 17.2912 99.615 17.1085 98.793 17.1085C97.9528 17.1085 97.2038 17.2912 96.5462 17.6565C95.9069 18.0218 95.3954 18.5516 95.0119 19.2457C94.6283 19.9215 94.4365 20.7344 94.4365 21.6843C94.4365 22.6159 94.6283 23.4287 95.0119 24.1228C95.3954 24.817 95.9069 25.3467 96.5462 25.712C97.2038 26.0774 97.9436 26.26 98.7656 26.26Z" fill="white"/>
</svg>
