<svg width="109" height="39" viewBox="0 0 109 39" fill="none" xmlns="http://www.w3.org/2000/svg">
<path d="M16.1268 27.2359L9.07395 27.4594C8.81876 27.4675 8.58616 27.6077 8.45995 27.8297L3.481 36.5852C3.14835 37.1701 2.26929 37.0353 2.12727 36.3775L0.065114 26.8265C0.0234737 26.6336 0.0613378 26.4321 0.170146 26.2675L4.03418 20.4226C4.17718 20.2063 4.19526 19.9305 4.08173 19.6974L0.184267 11.6945C0.0701569 11.4602 0.0890317 11.1829 0.233842 10.9663L6.8461 1.07227C6.98212 0.868742 7.21076 0.746544 7.45556 0.746544H17.4595H30.5912C31.2284 0.746544 31.5622 1.50345 31.1325 1.97393L27.2736 6.19889C27.1347 6.35095 26.9383 6.43758 26.7324 6.43758H20.7561H16.8816H6.00285C5.75073 6.43758 5.51631 6.56714 5.38217 6.78061L2.75551 10.9609C2.61722 11.181 2.60582 11.4578 2.72553 11.6885L9.51493 24.7729C9.6458 25.0251 9.91065 25.1789 10.1946 25.1677L17.7839 24.8673C18.073 24.8558 18.3283 24.6754 18.4356 24.4066L20.7561 18.5956C20.7561 18.5956 21.6253 18.5834 22.592 18.3168C23.1855 18.1531 23.9029 18.6238 23.8428 19.2364L23.0573 27.2359H16.1268ZM20.7583 23.0169C20.6971 22.9046 20.6663 22.7782 20.6691 22.6504L20.7561 18.5956L22.2808 15.273C22.5117 14.7698 22.1229 14.2021 21.5703 14.2356L18.3225 14.432C18.0543 14.4482 17.8165 14.6098 17.7027 14.8532L14.1861 22.3747C13.9296 22.9235 13.1558 22.9419 12.8735 22.4058L9.95122 16.8568C9.8163 16.6006 9.84484 16.289 10.0241 16.0615L12.608 12.7824C12.747 12.606 12.9592 12.5031 13.1837 12.5031H28.8526C29.3903 12.5031 29.745 13.0627 29.5156 13.5489L23.0573 27.2359L20.7583 23.0169Z" fill="#1E1E1E"/>
<path d="M34.829 29V9.82016H42.7201C44.4189 9.82016 45.8711 10.0942 47.0767 10.6422C48.3005 11.1902 49.2413 11.9756 49.8989 12.9985C50.5565 14.0215 50.8853 15.2362 50.8853 16.6427C50.8853 18.0492 50.5565 19.2639 49.8989 20.2869C49.2413 21.3098 48.3005 22.0953 47.0767 22.6433C45.8711 23.1912 44.4189 23.4652 42.7201 23.4652H36.8018L38.391 21.7939V29H34.829ZM38.391 22.1775L36.8018 20.4513H42.5557C44.1267 20.4513 45.3048 20.1225 46.0903 19.4649C46.894 18.789 47.2959 17.8483 47.2959 16.6427C47.2959 15.4188 46.894 14.4781 46.0903 13.8205C45.3048 13.1629 44.1267 12.8341 42.5557 12.8341H36.8018L38.391 11.0806V22.1775ZM54.3811 29V14.3685H57.8061V29H54.3811ZM56.1073 11.9573C55.4679 11.9573 54.9382 11.7564 54.5181 11.3545C54.1162 10.9527 53.9153 10.4686 53.9153 9.90236C53.9153 9.31783 54.1162 8.83377 54.5181 8.45017C54.9382 8.04831 55.4679 7.84738 56.1073 7.84738C56.7466 7.84738 57.2672 8.03918 57.6691 8.42277C58.0892 8.7881 58.2993 9.2539 58.2993 9.82016C58.2993 10.423 58.0983 10.9344 57.6965 11.3545C57.2946 11.7564 56.7649 11.9573 56.1073 11.9573ZM70.6035 14.2041C71.7725 14.2041 72.8137 14.4325 73.727 14.8891C74.6586 15.3458 75.3893 16.049 75.919 16.9989C76.4487 17.9305 76.7136 19.1361 76.7136 20.6157V29H73.2886V21.0541C73.2886 19.7571 72.9781 18.789 72.357 18.1497C71.7543 17.5104 70.9049 17.1907 69.8089 17.1907C69.0051 17.1907 68.2927 17.3551 67.6717 17.6839C67.0506 18.0127 66.5666 18.5059 66.2195 19.1635C65.8907 19.8028 65.7263 20.6157 65.7263 21.6021V29H62.3013V14.3685H65.5619V18.3141L64.9865 17.1085C65.498 16.1769 66.2378 15.4645 67.2059 14.9713C68.1923 14.4599 69.3248 14.2041 70.6035 14.2041ZM86.5657 29.1918C84.9583 29.1918 83.7162 28.7808 82.8394 27.9588C81.9626 27.1185 81.5242 25.8856 81.5242 24.2598V11.1354H84.9492V24.1776C84.9492 24.8718 85.1227 25.4106 85.4698 25.7942C85.8351 26.1778 86.3374 26.3696 86.9767 26.3696C87.7439 26.3696 88.3833 26.1687 88.8947 25.7668L89.8537 28.2054C89.4519 28.5342 88.9587 28.7808 88.3741 28.9452C87.7896 29.1096 87.1868 29.1918 86.5657 29.1918ZM79.113 17.2181V14.4781H88.8673V17.2181H79.113ZM98.7655 29.1918C97.2676 29.1918 95.9342 28.8721 94.7651 28.2328C93.5961 27.5752 92.6736 26.6802 91.9978 25.5476C91.3219 24.4151 90.984 23.1273 90.984 21.6843C90.984 20.2229 91.3219 18.9352 91.9978 17.8209C92.6736 16.6884 93.5961 15.8024 94.7651 15.1631C95.9342 14.5238 97.2676 14.2041 98.7655 14.2041C100.282 14.2041 101.624 14.5238 102.793 15.1631C103.981 15.8024 104.903 16.6792 105.561 17.7935C106.237 18.9078 106.574 20.2047 106.574 21.6843C106.574 23.1273 106.237 24.4151 105.561 25.5476C104.903 26.6802 103.981 27.5752 102.793 28.2328C101.624 28.8721 100.282 29.1918 98.7655 29.1918ZM98.7655 26.26C99.6058 26.26 100.355 26.0774 101.012 25.712C101.67 25.3467 102.181 24.817 102.547 24.1228C102.93 23.4287 103.122 22.6159 103.122 21.6843C103.122 20.7344 102.93 19.9215 102.547 19.2457C102.181 18.5516 101.67 18.0218 101.012 17.6565C100.355 17.2912 99.6149 17.1085 98.7929 17.1085C97.9526 17.1085 97.2037 17.2912 96.5461 17.6565C95.9068 18.0218 95.3953 18.5516 95.0117 19.2457C94.6281 19.9215 94.4363 20.7344 94.4363 21.6843C94.4363 22.6159 94.6281 23.4287 95.0117 24.1228C95.3953 24.817 95.9068 25.3467 96.5461 25.712C97.2037 26.0774 97.9435 26.26 98.7655 26.26Z" fill="#1E1E1E"/>
</svg>
