<svg width="82" height="13" viewBox="0 0 82 13" fill="none" xmlns="http://www.w3.org/2000/svg">
<path d="M6.5 0L7.95934 4.49139H12.6819L8.86126 7.26722L10.3206 11.7586L6.5 8.98278L2.6794 11.7586L4.13874 7.26722L0.318133 4.49139H5.04066L6.5 0Z" fill="#FFC44D"/>
<path d="M23.5 0L24.9593 4.49139H29.6819L25.8613 7.26722L27.3206 11.7586L23.5 8.98278L19.6794 11.7586L21.1387 7.26722L17.3181 4.49139H22.0407L23.5 0Z" fill="#FFC44D"/>
<path d="M41 0L42.5716 4.49139H47.6574L43.5429 7.26722L45.1145 11.7586L41 8.98278L36.8855 11.7586L38.4571 7.26722L34.3426 4.49139H39.4284L41 0Z" fill="#FFC44D"/>
<path d="M58.5 0L59.9593 4.49139H64.6819L60.8613 7.26722L62.3206 11.7586L58.5 8.98278L54.6794 11.7586L56.1387 7.26722L52.3181 4.49139H57.0407L58.5 0Z" fill="#FFC44D"/>
<path d="M75.5 0L76.9593 4.49139H81.6819L77.8613 7.26722L79.3206 11.7586L75.5 8.98278L71.6794 11.7586L73.1387 7.26722L69.3181 4.49139H74.0407L75.5 0Z" fill="#ADADAD"/>
</svg>
