<svg width="16" height="21" viewBox="0 0 16 21" fill="none" xmlns="http://www.w3.org/2000/svg">
<path fill-rule="evenodd" clip-rule="evenodd" d="M4 5.5V4.5C4 3.43913 4.42143 2.42172 5.17157 1.67157C5.92172 0.921427 6.93913 0.5 8 0.5C9.06087 0.5 10.0783 0.921427 10.8284 1.67157C11.5786 2.42172 12 3.43913 12 4.5V5.5H15C15.552 5.5 16 5.949 16 6.507V18.508C16 19.608 15.105 20.5 14.006 20.5H1.994C1.4655 20.5 0.958626 20.2902 0.584736 19.9167C0.210846 19.5432 0.000530086 19.0365 0 18.508V6.508C0 5.95 0.445 5.5 1 5.5H4ZM5.2 5.5H10.8V4.5C10.8 3.75739 10.505 3.0452 9.9799 2.5201C9.4548 1.995 8.74261 1.7 8 1.7C7.25739 1.7 6.5452 1.995 6.0201 2.5201C5.495 3.0452 5.2 3.75739 5.2 4.5V5.5ZM4 6.7H1.2V18.508C1.2 18.944 1.556 19.3 1.994 19.3H14.006C14.2162 19.3 14.4179 19.2166 14.5667 19.0681C14.7156 18.9197 14.7995 18.7182 14.8 18.508V6.7H12V9.5H10.8V6.7H5.2V9.5H4V6.7Z" fill="white"/>
</svg>
